<?xml version="1.0" encoding="UTF-8" standalone="no"?>
<!DOCTYPE svg PUBLIC "-//W3C//DTD SVG 1.1//EN" "http://www.w3.org/Graphics/SVG/1.1/DTD/svg11.dtd">
<svg width="100%" height="100%" viewBox="0 0 1844 287" version="1.1" xmlns="http://www.w3.org/2000/svg" xmlns:xlink="http://www.w3.org/1999/xlink" xml:space="preserve" xmlns:serif="http://www.serif.com/" style="fill-rule:evenodd;clip-rule:evenodd;stroke-linejoin:round;stroke-miterlimit:2;">
    <g transform="matrix(1,0,0,1,-236,-715)">
        <g id="logo">
            <g transform="matrix(277.512,-277.512,-277.512,-277.512,146.199,917.722)">
                <path d="M0.574,0.156C0.548,0.182 0.504,0.18 0.478,0.154L0.442,0.118C0.433,0.109 0.436,0.093 0.448,0.088C0.463,0.082 0.466,0.082 0.483,0.065L0.846,-0.297C0.874,-0.326 0.921,-0.325 0.95,-0.297L0.967,-0.28C0.979,-0.268 0.979,-0.249 0.967,-0.237L0.574,0.156ZM0.435,0.017C0.409,0.043 0.365,0.041 0.339,0.015L0.303,-0.022C0.294,-0.031 0.297,-0.046 0.308,-0.051C0.323,-0.057 0.327,-0.057 0.344,-0.074L0.614,-0.344C0.643,-0.373 0.69,-0.372 0.719,-0.344L0.736,-0.326C0.747,-0.315 0.747,-0.296 0.736,-0.284L0.435,0.017ZM0.296,-0.122C0.269,-0.096 0.226,-0.098 0.2,-0.125L0.164,-0.161C0.155,-0.17 0.158,-0.185 0.169,-0.19C0.184,-0.196 0.188,-0.196 0.205,-0.213L0.383,-0.391C0.412,-0.42 0.459,-0.419 0.487,-0.39L0.504,-0.373C0.516,-0.362 0.516,-0.343 0.505,-0.331L0.296,-0.122ZM0.156,-0.262C0.13,-0.235 0.087,-0.238 0.061,-0.264L0.025,-0.3C0.016,-0.309 0.018,-0.324 0.03,-0.329C0.045,-0.335 0.049,-0.335 0.066,-0.352L0.151,-0.438C0.18,-0.466 0.227,-0.466 0.256,-0.437L0.273,-0.42C0.285,-0.409 0.285,-0.39 0.273,-0.378L0.156,-0.262Z" style="fill:url(#_Linear1);fill-rule:nonzero;"/>
            </g>
            <g transform="matrix(4.16667,0,0,4.16667,2006.39,750.268)">
                <path d="M0,60.07C10.711,60.07 17.454,54.754 17.454,47.295C17.454,39.439 12.295,36.586 3.086,34.286C-3.736,32.539 -5.558,31.667 -5.558,29.614C-5.558,27.869 -3.651,26.596 -0.079,26.596C3.324,26.596 8.382,27.892 12.448,30.384C12.667,30.515 12.889,30.365 12.94,30.113L14.597,22.145C14.659,21.672 14.309,21.123 13.832,20.888C10.364,19.168 5.927,17.793 0.392,17.793C-10.319,17.793 -16.667,23.102 -16.667,30.401C-16.667,38.018 -10.789,40.791 -2.544,42.934C4.755,44.84 6.338,45.787 6.338,47.926C6.338,49.839 4.196,51.181 0.706,51.181C-5.594,51.181 -10.14,48.811 -15.275,45.441C-15.465,45.32 -15.605,45.47 -15.635,45.663L-17.412,54.215C-17.486,54.608 -17.091,55.032 -16.712,55.244C-12.199,57.814 -6.89,60.07 0,60.07M-205.832,60.07C-195.122,60.07 -188.379,54.754 -188.379,47.295C-188.379,39.439 -193.538,36.586 -202.747,34.286C-209.568,32.539 -211.39,31.667 -211.39,29.614C-211.39,27.869 -209.483,26.596 -205.911,26.596C-202.508,26.596 -197.45,27.892 -193.384,30.384C-193.166,30.515 -192.944,30.365 -192.892,30.113L-191.235,22.145C-191.173,21.672 -191.523,21.123 -192,20.888C-195.468,19.168 -199.905,17.793 -205.44,17.793C-216.151,17.793 -222.499,23.102 -222.499,30.401C-222.499,38.018 -216.621,40.791 -208.376,42.934C-201.077,44.84 -199.494,45.787 -199.494,47.926C-199.494,49.839 -201.636,51.181 -205.127,51.181C-211.426,51.181 -215.972,48.811 -221.108,45.441C-221.298,45.32 -221.437,45.47 -221.467,45.663L-223.244,54.215C-223.318,54.608 -222.924,55.032 -222.545,55.244C-218.032,57.814 -212.722,60.07 -205.832,60.07M-144.154,35.553C-144.207,35.155 -144.289,34.759 -144.36,34.364L-144.362,34.365C-144.367,34.333 -144.359,34.31 -144.364,34.277C-144.378,34.218 -144.397,34.143 -144.41,34.082C-144.779,32.237 -145.344,30.45 -145.932,29.163L-145.937,29.166C-146.094,28.767 -146.247,28.377 -146.398,28.049C-149.219,21.842 -154.797,17.456 -163.463,17.456C-175.835,17.456 -184.012,27.371 -184.012,38.707C-184.012,51.485 -175.604,59.973 -162.35,59.973C-156.677,59.973 -152.58,58.595 -148.654,56.763C-148.298,56.599 -148.023,56.286 -147.906,55.913L-145.894,46.29C-145.738,45.761 -146.042,45.379 -146.378,45.552C-149.967,47.838 -154.581,50.572 -160.213,50.529C-165.912,50.487 -170.565,48.149 -172.028,44.135L-145.202,36.997C-144.416,36.719 -144.06,36.278 -144.154,35.553M-173.389,36.132C-173.623,29.673 -168.788,26.408 -164.089,26.104C-160.797,25.895 -156.826,27.883 -155.477,31.345L-173.389,36.132ZM-229.856,35.553C-229.909,35.155 -229.991,34.759 -230.062,34.364L-230.064,34.365C-230.069,34.333 -230.061,34.31 -230.066,34.277C-230.08,34.218 -230.099,34.143 -230.112,34.082C-230.481,32.237 -231.046,30.45 -231.635,29.163L-231.64,29.166C-231.796,28.767 -231.949,28.377 -232.1,28.049C-234.921,21.842 -240.499,17.456 -249.165,17.456C-261.537,17.456 -269.714,27.371 -269.714,38.707C-269.714,51.485 -261.306,59.973 -248.051,59.973C-242.379,59.973 -238.282,58.595 -234.356,56.763C-234,56.599 -233.725,56.286 -233.608,55.913L-231.597,46.29C-231.44,45.761 -231.744,45.379 -232.08,45.552C-235.668,47.838 -240.282,50.572 -245.915,50.529C-251.614,50.487 -256.267,48.149 -257.73,44.135L-230.904,36.997C-230.118,36.719 -229.762,36.278 -229.856,35.553M-259.091,36.132C-259.325,29.673 -254.49,26.408 -249.791,26.104C-246.499,25.895 -242.528,27.883 -241.18,31.345L-259.091,36.132ZM-24.952,59.252C-24.671,59.252 -24.442,59.024 -24.442,58.741L-24.442,19.174C-24.442,18.892 -24.671,18.664 -24.952,18.664L-35.926,18.664C-36.208,18.664 -36.435,18.892 -36.435,19.174L-36.435,45.669C-38.132,47.1 -39.641,48.12 -40.963,48.728C-42.288,49.337 -43.691,49.641 -45.174,49.641C-47.345,49.641 -49.012,48.98 -50.177,47.656C-51.342,46.332 -51.924,44.452 -51.924,42.015L-51.924,19.174C-51.924,18.892 -52.153,18.664 -52.434,18.664L-63.488,18.664C-63.769,18.664 -63.997,18.892 -63.997,19.174L-63.997,44.478C-63.997,49.297 -62.766,53.11 -60.304,55.916C-57.842,58.724 -54.519,60.126 -50.336,60.126C-47.477,60.126 -44.934,59.477 -42.711,58.18C-40.487,56.882 -38.29,54.804 -36.118,51.945L-36.118,58.741C-36.118,59.024 -35.89,59.252 -35.608,59.252L-24.952,59.252M-115.546,28.274C-113.375,28.274 -111.693,28.937 -110.502,30.26C-109.31,31.585 -108.715,33.438 -108.715,35.821L-108.715,58.741C-108.715,59.024 -108.487,59.252 -108.204,59.252L-97.232,59.252C-96.949,59.252 -96.722,59.024 -96.722,58.741L-96.722,33.358C-96.722,28.54 -97.952,24.728 -100.414,21.92C-102.877,19.114 -106.2,17.711 -110.383,17.711C-113.136,17.711 -115.639,18.36 -117.889,19.657C-120.14,20.955 -122.35,23.032 -124.521,25.891L-124.521,18.687C-124.521,18.38 -124.791,18.142 -125.096,18.181L-135.831,19.56C-136.086,19.593 -136.276,19.809 -136.276,20.065L-136.276,58.741C-136.276,59.024 -136.049,59.252 -135.767,59.252L-124.714,59.252C-124.432,59.252 -124.203,59.024 -124.203,58.741L-124.203,32.167C-122.509,30.738 -121.013,29.731 -119.715,29.148C-118.419,28.566 -117.029,28.274 -115.546,28.274M-277.022,30.578C-276.493,30.578 -276.003,30.592 -275.552,30.618C-275.401,30.627 -275.249,30.64 -275.095,30.658C-274.612,30.715 -274.19,30.337 -274.217,29.852L-274.837,19.044C-274.86,18.634 -275.168,18.293 -275.573,18.225C-275.853,18.177 -276.096,18.138 -276.307,18.108C-276.678,18.055 -277.075,18.028 -277.499,18.028C-279.671,18.028 -281.735,18.811 -283.694,20.371C-285.653,21.934 -288.036,24.701 -290.842,28.672L-290.842,18.688C-290.842,18.38 -291.113,18.142 -291.418,18.182L-302.153,19.56C-302.407,19.593 -302.597,19.81 -302.597,20.066L-302.597,58.776C-302.597,59.039 -302.384,59.252 -302.121,59.252L-291.001,59.252C-290.737,59.252 -290.524,59.039 -290.524,58.776L-290.524,35.503C-287.931,33.755 -285.574,32.498 -283.456,31.73C-281.338,30.962 -279.194,30.578 -277.022,30.578M-312.497,28.467C-312.497,28.186 -312.725,27.957 -313.007,27.957L-330.97,27.957C-331.252,27.957 -331.481,27.729 -331.481,27.446L-331.481,15.282C-331.481,15 -331.252,14.771 -330.97,14.771L-310.371,14.771C-310.129,14.771 -309.92,14.602 -309.871,14.365L-307.779,4.265C-307.713,3.948 -307.955,3.652 -308.279,3.652L-343.837,3.652C-344.119,3.652 -344.348,3.88 -344.348,4.161L-344.348,58.742C-344.348,59.023 -344.119,59.252 -343.837,59.252L-331.99,59.252C-331.709,59.252 -331.481,59.023 -331.481,58.742L-331.481,38.952C-331.481,38.67 -331.252,38.442 -330.97,38.442L-313.007,38.442C-312.725,38.442 -312.497,38.213 -312.497,37.931L-312.497,28.467M-80.354,13.081C-76.43,13.081 -73.415,10.211 -73.415,6.509C-73.415,2.733 -76.43,-0.056 -80.354,-0.056C-84.285,-0.056 -87.303,2.733 -87.303,6.509C-87.303,10.211 -84.285,13.081 -80.354,13.081M-85.984,18.718L-74.807,18.718C-74.584,18.718 -74.408,18.894 -74.408,19.113L-74.408,58.85C-74.408,59.066 -74.584,59.248 -74.807,59.248L-85.984,59.248C-86.205,59.248 -86.385,59.066 -86.385,58.85L-86.385,19.113C-86.385,18.894 -86.205,18.718 -85.984,18.718" style="fill:rgb(0,61,123);fill-rule:nonzero;"/>
            </g>
        </g>
    </g>
    <defs>
        <linearGradient id="_Linear1" x1="0" y1="0" x2="1" y2="0" gradientUnits="userSpaceOnUse" gradientTransform="matrix(1,0,0,-1,0,-0.284324)"><stop offset="0" style="stop-color:rgb(0,61,123);stop-opacity:1"/><stop offset="0.11" style="stop-color:rgb(0,61,123);stop-opacity:1"/><stop offset="0.41" style="stop-color:rgb(0,114,187);stop-opacity:1"/><stop offset="0.69" style="stop-color:rgb(14,191,220);stop-opacity:1"/><stop offset="1" style="stop-color:rgb(129,201,156);stop-opacity:1"/></linearGradient>
    </defs>
</svg>
